<svg viewBox="0 0 264.58333 264.58333" xmlns="http://www.w3.org/2000/svg" shapeRendering="geometricPrecision"><path style="fill:#065084;stroke-width:1.14546;image-rendering:auto" d="m 127.00275,228.10635 c -0.33271,-0.0317 -1.48964,-0.12962 -2.57094,-0.21755 -10.41574,-0.84692 -21.96555,-3.7138 -33.236946,-8.24999 -7.10881,-2.86097 -16.18361,-8.7651 -24.191475,-15.73916 -2.62223,-2.28371 -7.873045,-7.58487 -10.144435,-10.2417 -11.764505,-13.76088 -18.935422,-29.48833 -21.417748,-46.97398 -0.579591,-4.08268 -0.782043,-6.86583 -0.869065,-11.94728 -0.129541,-7.56421 0.299312,-13.293 1.556652,-20.79433 0.448597,-2.67634 1.233634,-6.59327 1.34344,-6.70308 0.04242,-0.0424 0.07747,0.56372 0.07789,1.34697 4.18e-4,0.78325 0.102232,2.58102 0.226262,3.99503 1.667567,19.01179 8.064088,37.76554 17.84735,52.32608 13.973342,20.79666 34.606579,34.06617 61.596785,39.61369 1.44031,0.29603 2.73333,0.53441 2.8734,0.52973 0.14006,-0.005 -0.45992,-0.2322 -1.33329,-0.50557 -8.30024,-2.59818 -16.32079,-7.12201 -24.045576,-13.56245 -2.36996,-1.97593 -7.225667,-6.72418 -9.421579,-9.2131 -3.612894,-4.09497 -7.702301,-9.55737 -9.56699,-12.77905 l -0.437659,-0.75617 1.206241,1.09078 c 5.693187,5.14822 13.516932,9.58066 20.485427,11.60575 2.06981,0.6015 5.470976,1.34064 5.829296,1.26683 0.14334,-0.0296 -0.42776,-0.48429 -1.39234,-1.10869 -9.980646,-6.46074 -19.746766,-15.99728 -26.177325,-25.56199 -4.38988,-6.52943 -7.739723,-13.82383 -9.408795,-20.48798 -0.260402,-1.0397 -0.501283,-1.97545 -0.53529,-2.07942 -0.03401,-0.10401 -0.03827,-0.18904 -0.0095,-0.18904 0.02881,0 0.628515,0.76705 1.332693,1.70454 5.191612,6.91184 10.608743,12.46989 14.281497,14.65304 1.984354,1.17952 2.028504,1.13577 0.758621,-0.7519 -5.085657,-7.55978 -8.737359,-16.99232 -9.993525,-25.8138 -2.192569,-15.39742 2.57425,-30.139552 13.729981,-42.462077 2.648263,-2.92525 2.512424,-2.891746 1.234259,-0.304419 -7.744263,15.676334 -10.125141,31.793266 -6.519942,44.135576 2.853213,9.7679 9.118959,17.54778 18.83916,23.39169 5.070726,3.04858 11.370416,5.65745 18.332426,7.59195 5.66165,1.57319 7.58416,1.88269 14.63603,2.35631 5.04862,0.33908 7.53418,0.60492 9.84625,1.05312 7.61697,1.47654 11.41419,5.17479 11.72771,11.42205 0.0678,1.35108 0.0223,1.95887 -0.24203,3.23584 -0.8393,4.05384 -0.96652,9.13567 -0.31733,12.67672 1.56222,8.5212 6.71136,13.71243 15.43216,15.55832 2.45607,0.51987 6.74628,0.31699 10.42308,-0.49287 4.52101,-0.9958 7.88637,-2.75243 10.67371,-5.57136 2.83134,-2.86345 4.44911,-6.30547 5.05975,-10.76529 0.18715,-1.36691 0.28234,-4.80779 0.13711,-4.956 -0.0529,-0.0541 -0.8037,0.47088 -1.66836,1.16644 -3.91714,3.15106 -8.42679,5.56022 -11.65082,6.22415 -3.27427,0.67427 -5.75136,0.0737 -7.69505,-1.86571 -1.16681,-1.16423 -2.16594,-3.03649 -2.78524,-5.21925 -0.45212,-1.59355 -0.42511,-2.03338 0.0456,-0.7424 0.39973,1.0963 1.58734,3.10425 2.3946,4.04866 0.32486,0.38007 0.99784,0.9975 1.4955,1.37206 3.165,2.38217 7.13825,1.96402 11.9554,-1.25819 1.50262,-1.00512 4.26795,-3.33276 5.44348,-4.5819 1.32065,-1.40337 3.14292,-5.09611 4.38671,-8.8895 0.76726,-2.34001 1.59139,-3.87226 3.02544,-5.62512 2.6292,-3.21366 6.27974,-5.41208 10.37884,-6.2503 0.6568,-0.13431 2.27374,-0.26817 3.70518,-0.30675 3.90021,-0.10515 5.76671,-0.67922 7.68168,-2.36284 0.55482,-0.48781 1.49532,-1.07895 2.42058,-1.52142 1.36532,-0.65293 4.32479,-1.58513 5.89715,-1.85755 0.57014,-0.0987 0.52229,-0.0488 -0.83178,0.86963 -2.33124,1.58117 -4.1954,3.36184 -5.04681,4.82081 -0.20832,0.35695 -0.76573,1.60176 -1.23871,2.76624 -1.67615,4.12667 -6.46692,15.00351 -7.56033,17.16477 -3.12442,6.17583 -7.34151,12.64256 -10.79902,16.55984 -0.58732,0.66542 -1.73052,1.99248 -2.54045,2.94902 -2.04758,2.41821 -6.169,6.50042 -8.97392,8.88856 -6.28268,5.34914 -12.56886,9.50718 -19.72077,13.04447 -10.0104,4.95107 -19.48936,7.69772 -31.07806,9.00526 -1.57919,0.17817 -3.88569,0.25937 -8.2421,0.29016 -3.3271,0.0235 -6.32148,0.0168 -6.65419,-0.0149 z M 96.075924,129.08653 c -1.76014,-0.3819 -2.99548,-1.48965 -3.31317,-2.97098 -0.11005,-0.51314 -0.16515,-4.13928 -0.16515,-10.86771 0,-11.3232 -0.0359,-10.91146 1.09964,-12.59534 0.76603,-1.13589 2.06035,-2.07499 3.55221,-2.57736 0.99268,-0.334262 1.20414,-0.344472 8.089396,-0.390672 l 7.07006,-0.0474 v -2.18589 -2.18588 H 100.99094 89.57297 v -2.8734 -2.87339 h 67.75167 67.75168 v 2.87339 2.8734 h -1.51231 -1.51231 v 17.013532 17.01354 h -3.47832 -3.47833 V 112.27883 95.265298 h -9.07388 -9.07389 v 3.10025 3.100252 h 4.51279 4.51278 l 0.90796,0.4537 c 1.02599,0.51269 2.30281,1.66275 2.7014,2.4332 0.59887,1.15756 0.66979,1.8678 0.67164,6.72716 0.002,5.55258 -0.0245,5.69201 -1.34628,7.03364 -1.35766,1.37812 -1.96565,1.54793 -5.79761,1.61928 l -3.13806,0.0584 v -2.78853 -2.78854 l 1.30263,-0.092 c 0.7851,-0.0554 1.44603,-0.18589 1.66355,-0.32841 0.35637,-0.23351 0.36092,-0.26805 0.36092,-2.74279 0,-3.76761 -0.0709,-3.83844 -3.84192,-3.83844 h -2.5098 v 11.04439 11.04438 l -11.60701,-0.0433 c -10.79819,-0.0403 -11.65649,-0.0625 -12.31697,-0.31832 -0.94674,-0.36668 -1.98191,-1.30188 -2.41543,-2.18216 l -0.35294,-0.71665 v -10.5862 -10.58619 l 0.35771,-0.72001 c 0.4483,-0.90237 1.61531,-1.96483 2.55438,-2.32554 0.65567,-0.25184 1.41111,-0.27962 8.77054,-0.3226 l 8.05308,-0.047 v -3.094012 -3.09402 h -12.32536 -12.32537 v 17.013532 17.01354 h -3.47833 -3.47832 V 112.27876 95.265228 h -2.41969 -2.41971 v 17.013532 17.01354 h -3.40178 -3.4018 l -0.0387,-11.83386 -0.0387,-11.83386 -1.07161,0.0192 c -1.91959,0.0344 -2.32968,0.54329 -2.33052,2.89199 l -5.8e-4,1.55013 h -3.47831 -3.47832 v -1.50247 c 0,-1.62784 -0.10928,-2.08655 -0.60769,-2.55088 -0.7495,-0.69828 -2.83517,-0.48152 -3.66078,0.38044 -0.8383,0.87519 -0.87341,1.12852 -0.87341,6.303 v 4.75704 l 0.39153,0.4653 c 0.38795,0.46106 0.40496,0.46529 1.86781,0.46529 2.52722,0 2.88254,-0.30665 2.88254,-2.4878 v -1.29299 h 3.47832 3.47831 v 3.00563 c 0,3.25843 -0.0963,3.80516 -0.84308,4.78418 -0.23696,0.31066 -0.81053,0.72744 -1.40157,1.01841 l -1.00046,0.49252 h -6.58174 c -6.45511,0 -6.59339,-0.006 -7.18668,-0.32642 -0.79191,-0.42731 -1.34711,-1.02737 -1.72693,-1.86643 -0.29844,-0.6593 -0.30815,-0.95471 -0.31137,-9.46233 -0.003,-9.77975 0.003,-9.85283 0.98948,-10.94484 0.28712,-0.31782 0.87875,-0.7391 1.31474,-0.9362 0.76995,-0.34806 0.92624,-0.35972 5.44603,-0.406022 5.42818,-0.0557 5.97901,0.0277 6.95368,1.052232 0.31192,0.32787 0.57013,0.71234 0.57381,0.8544 0.003,0.15361 0.12105,0.0438 0.28888,-0.27103 0.3708,-0.69548 1.018,-1.27877 1.6552,-1.49173 0.29744,-0.0994 1.5242,-0.171802 2.9112,-0.171802 h 2.39713 v -2.34409 -2.3441 h -13.76205 -13.76206 v 17.013542 17.01353 l -11.15332,-0.0127 c -8.03193,-0.009 -11.386096,-0.0632 -11.985086,-0.19315 z m 16.332986,-14.70108 v -9.16011 l -5.17967,0.0485 c -5.07377,0.0474 -5.19435,0.0557 -5.89697,0.40167 -0.39451,0.19429 -0.85532,0.54707 -1.024,0.78397 -0.736466,1.03427 -0.754026,1.2387 -0.754026,8.77584 v 7.07727 l 0.40356,0.47959 c 0.221936,0.26378 0.545196,0.5369 0.718336,0.60694 0.17314,0.0701 2.88385,0.13166 6.02379,0.13693 l 5.70898,0.009 z m 77.58173,0.99361 v -8.16649 h -5.53491 c -6.12863,0 -6.21104,0.0116 -6.95022,0.98075 l -0.36955,0.4845 v 6.7953 c 0,7.49393 -0.04,7.17088 0.96285,7.78237 0.44432,0.27094 0.82964,0.28898 6.18284,0.2895 l 5.70899,5.7e-4 z m -143.560524,9.1495 C 44.32798,111.66012 44.07911,98.484088 45.738848,87.930553 c 0.263657,-1.676474 0.388703,-2.09964 0.849098,-2.873397 1.048387,-1.761959 3.270154,-5.018531 5.00153,-7.33103 12.180283,-16.268503 28.17389,-28.681523 44.736258,-34.72088 2.95813,-1.078657 7.278646,-2.402078 7.009296,-2.147012 -0.0416,0.03938 -0.99435,0.46086 -2.11724,0.936619 -4.084796,1.730688 -9.933706,4.931114 -14.064522,7.695862 -17.509843,11.719322 -29.973543,28.334768 -35.912367,47.875043 -2.672693,8.793852 -4.045622,17.803752 -4.357991,28.599512 -0.03261,1.12697 -0.03551,1.11776 -0.452794,-1.43671 z M 79.232953,62.801941 c 1.745468,-1.623755 4.791574,-4.24308 7.088477,-6.095331 7.395154,-5.963545 14.37238,-10.568368 21.32369,-14.0732 6.38665,-3.220127 12.19199,-5.220203 17.38542,-5.98969 1.39155,-0.206179 2.46342,-0.232371 6.43353,-0.157213 9.44478,0.178801 17.80645,1.206456 25.40688,3.122521 2.56273,0.646063 6.72723,1.946456 6.60975,2.063938 -0.0406,0.04053 -0.77869,-0.06105 -1.64037,-0.225733 -7.46894,-1.427468 -16.82486,-1.844683 -25.65634,-1.144111 -16.26395,1.290166 -31.5238,6.165994 -45.325556,14.48242 -3.282651,1.978007 -7.200487,4.708106 -11.417968,7.956484 l -0.831773,0.640646 z" /></svg>
